<svg width="200" height="200" viewBox="0 0 200 200" fill="none" xmlns="http://www.w3.org/2000/svg">
<g filter="url(#filter0_d_10_131)">
<rect x="80" y="76" width="40" height="40" rx="20" fill="#E5F0F5"/>
<path d="M105 95H97.41L100.71 91.71C100.898 91.5217 101.004 91.2663 101.004 91C101.004 90.7337 100.898 90.4783 100.71 90.29C100.522 90.1017 100.266 89.9959 100 89.9959C99.7337 89.9959 99.4783 90.1017 99.29 90.29L94.29 95.29C94.1989 95.3851 94.1276 95.4973 94.08 95.62C93.98 95.8635 93.98 96.1365 94.08 96.38C94.1276 96.5028 94.1989 96.6149 94.29 96.71L99.29 101.71C99.383 101.804 99.4936 101.878 99.6154 101.929C99.7373 101.98 99.868 102.006 100 102.006C100.132 102.006 100.263 101.98 100.385 101.929C100.506 101.878 100.617 101.804 100.71 101.71C100.804 101.617 100.878 101.506 100.929 101.385C100.98 101.263 101.006 101.132 101.006 101C101.006 100.868 100.98 100.737 100.929 100.615C100.878 100.494 100.804 100.383 100.71 100.29L97.41 97H105C105.265 97 105.52 96.8946 105.707 96.7071C105.895 96.5196 106 96.2652 106 96C106 95.7348 105.895 95.4804 105.707 95.2929C105.52 95.1054 105.265 95 105 95Z" fill="#8A8A8A"/>
</g>
<defs>
<filter id="filter0_d_10_131" x="0" y="0" width="200" height="200" filterUnits="userSpaceOnUse" color-interpolation-filters="sRGB">
<feFlood flood-opacity="0" result="BackgroundImageFix"/>
<feColorMatrix in="SourceAlpha" type="matrix" values="0 0 0 0 0 0 0 0 0 0 0 0 0 0 0 0 0 0 127 0" result="hardAlpha"/>
<feOffset dy="4"/>
<feGaussianBlur stdDeviation="40"/>
<feComposite in2="hardAlpha" operator="out"/>
<feColorMatrix type="matrix" values="0 0 0 0 0.203922 0 0 0 0 0.678431 0 0 0 0 0.890196 0 0 0 0.55 0"/>
<feBlend mode="normal" in2="BackgroundImageFix" result="effect1_dropShadow_10_131"/>
<feBlend mode="normal" in="SourceGraphic" in2="effect1_dropShadow_10_131" result="shape"/>
</filter>
</defs>
</svg>
